<svg width="23" height="22" fill="none" xmlns="http://www.w3.org/2000/svg"><path d="M22.478 20.448L16.94 14.98a9.094 9.094 0 002.073-6.495 9.13 9.13 0 00-3.032-6.115A9.365 9.365 0 009.512.003a9.353 9.353 0 00-6.339 2.684 9.117 9.117 0 00-2.72 6.258 9.105 9.105 0 002.4 6.383 9.34 9.34 0 006.195 2.994 9.375 9.375 0 006.58-2.046l5.538 5.467a.935.935 0 001.3-.011.91.91 0 00.012-1.284zM9.76 16.516a7.493 7.493 0 01-4.124-1.235 7.348 7.348 0 01-2.734-3.289 7.24 7.24 0 01-.423-4.233 7.299 7.299 0 012.032-3.752 7.453 7.453 0 013.8-2.005 7.513 7.513 0 014.29.417 7.403 7.403 0 013.33 2.699 7.26 7.26 0 011.252 4.07 7.288 7.288 0 01-2.177 5.18 7.48 7.48 0 01-5.246 2.148z" fill="#EC762A"/></svg>